# This file uses centimeters as units for non-parametric coordinates.

t Textures/sky.jpg
v -50.000000 -50.000000 50.000000
v 50.000000 -50.000000 50.000000
v -50.000000 50.000000 50.000000
v 50.000000 50.000000 50.000000
v -50.000000 50.000000 -50.000000
v 50.000000 50.000000 -50.000000
v -50.000000 -50.000000 -50.000000
v 50.000000 -50.000000 -50.000000
vt 0.339548 0.672577
vt 0.660061 0.672577
vt 0.339548 0.993089
vt 0.339548 0.993089
vt 0.660061 0.672577
vt 0.660061 0.993089
vt 0.338765 0.338042
vt 0.661899 0.338042
vt 0.338765 0.661176
vt 0.338765 0.661176
vt 0.661899 0.338042
vt 0.661899 0.661176
vt 0.998901 0.324889
vt 0.675371 0.324173
vt 0.999617 0.001359
vt 0.999617 0.001359
vt 0.675371 0.324173
vt 0.676087 0.000643
vt 0.676314 0.337392
vt 0.998163 0.337392
vt 0.676314 0.659241
vt 0.676314 0.659241
vt 0.998163 0.337392
vt 0.998163 0.659241
vt 0.002277 0.338723
vt 0.324316 0.338723
vt 0.002277 0.660761
vt 0.002277 0.660761
vt 0.324316 0.338723
vt 0.324316 0.660761
vn 0.000000 0.000000 1.000000
vn 0.000000 0.000000 1.000000
vn 0.000000 0.000000 1.000000
vn 0.000000 0.000000 1.000000
vn 0.000000 0.000000 1.000000
vn 0.000000 0.000000 1.000000
vn 0.000000 1.000000 0.000000
vn 0.000000 1.000000 0.000000
vn 0.000000 1.000000 0.000000
vn 0.000000 1.000000 0.000000
vn 0.000000 1.000000 0.000000
vn 0.000000 1.000000 0.000000
vn 0.000000 0.000000 -1.000000
vn 0.000000 0.000000 -1.000000
vn 0.000000 0.000000 -1.000000
vn 0.000000 0.000000 -1.000000
vn 0.000000 0.000000 -1.000000
vn 0.000000 0.000000 -1.000000
vn 1.000000 0.000000 0.000000
vn 1.000000 0.000000 0.000000
vn 1.000000 0.000000 0.000000
vn 1.000000 0.000000 0.000000
vn 1.000000 0.000000 0.000000
vn 1.000000 0.000000 0.000000
vn -1.000000 0.000000 0.000000
vn -1.000000 0.000000 0.000000
vn -1.000000 0.000000 0.000000
vn -1.000000 0.000000 0.000000
vn -1.000000 0.000000 0.000000
vn -1.000000 0.000000 0.000000
f 1/1/1 2/2/2 3/3/3
f 3/4/4 2/5/5 4/6/6
f 3/7/7 4/8/8 5/9/9
f 5/10/10 4/11/11 6/12/12
f 5/13/13 6/14/14 7/15/15
f 7/16/16 6/17/17 8/18/18
f 2/19/19 8/20/20 4/21/21
f 4/22/22 8/23/23 6/24/24
f 7/25/25 1/26/26 5/27/27
f 5/28/28 1/29/29 3/30/30
